<svg xmlns="http://www.w3.org/2000/svg" xml:space="preserve" width="1.70666in" height="1.70666in" version="1.1" style="shape-rendering:geometricPrecision; text-rendering:geometricPrecision; image-rendering:optimizeQuality; fill-rule:evenodd; clip-rule:evenodd" viewBox="0 0 1706.66 1706.66" xmlns:xlink="http://www.w3.org/1999/xlink" xmlns:xodm="http://www.corel.com/coreldraw/odm/2003">
 <defs>
  <style type="text/css">
   
    .fil0 {fill:black}
   
  </style>
 </defs>
 <g id="Layer_x0020_1">
  <metadata id="CorelCorpID_0Corel-Layer"></metadata>
  <path class="fil0" d="M959.51 436.67l-472.14 0c-26.33,0 -26.33,-40 0,-40l472.15 0c26.35,0 26.34,40 -0.02,40z" id="id_116" style="fill: rgb(157, 73, 209);"></path>
  <path class="fil0" d="M1060.69 651.59l-674.5 0c-26.33,0 -26.33,-40 0,-40l674.48 0c26.32,0 26.33,40 0.02,40z" id="id_117" style="fill: rgb(157, 73, 209);"></path>
  <path class="fil0" d="M959.51 880.15l-472.14 0c-26.32,0 -26.33,-40 0,-40l472.15 0c26.36,0 26.33,40 -0.02,40z" id="id_118" style="fill: rgb(156, 58, 209);"></path>
  <path class="fil0" d="M828.04 1095.07l-441.85 0c-26.32,0 -26.32,-40 0,-40l441.85 0c26.33,0 26.33,40 0,40z" id="id_119" style="fill: rgb(159, 62, 212);"></path>
  <path class="fil0" d="M902.16 1309.99l-414.79 0c-26.32,0 -26.32,-40 0,-40l414.79 0c26.33,0 26.33,40 0,40z" id="id_120" style="fill: rgb(157, 73, 209);"></path>
  <path class="fil0" d="M1146.27 1603.33l-1023.89 0c-26.33,0 -26.33,-40 0,-40l1023.89 0c30.79,0 55.85,-25.06 55.85,-55.85l0 -428.15c0,-26.33 40,-26.32 40,0l0 428.15c-0,52.85 -43,95.85 -95.85,95.85zm-921.5 -293.89c-11.04,0 -20,-8.97 -20,-20l0 -1090.26c0,-52.85 43,-95.85 95.83,-95.85l1023.89 0c26.33,0 26.32,40 0,40l-1023.89 0c-30.8,0 -55.85,25.06 -55.85,55.85l0 1090.26c0.02,11.03 -8.94,20 -19.98,20zm997.34 -535.37c-11.04,0 -20,-8.96 -20,-20l0 -336.84c0,-26.33 40,-26.33 40,0l0 336.84c0,11.06 -8.96,20 -20,20z" id="id_121" style="fill: rgb(157, 73, 209);"></path>
  <path class="fil0" d="M1426.9 437.22l-204.78 0c-11.04,0 -20,-8.96 -20,-20l0 -191.5c0,-67.48 54.9,-122.39 122.39,-122.39 67.48,0 122.4,54.9 122.4,122.39l0 191.5c-0.01,11.06 -8.97,20 -20.01,20zm-184.78 -40l164.77 0 0 -171.5c0,-108.44 -164.78,-108.43 -164.78,0l0 171.5 0.01 0z" id="id_122" style="fill: rgb(157, 73, 209);"></path>
  <path class="fil0" d="M122.39 1603.33c-67.48,0 -122.39,-54.91 -122.39,-122.41l0 -191.5c0,-11.04 8.96,-20 20,-20l204.78 0c11.04,0 20,8.97 20,20l0 191.5c0,67.5 -54.92,122.4 -122.39,122.4zm-82.41 -293.89l0 171.5c0,108.44 164.78,108.43 164.78,0l0 -171.5 -164.78 0z" id="id_123" style="fill: rgb(157, 73, 209);"></path>
  <path class="fil0" d="M902.16 1309.99c-12.78,0 -22.47,-11.99 -19.48,-24.64 6.5,-27.51 50.31,-224.72 57.67,-233.31l506.85 -591.33c12.57,-14.67 36.72,-16.53 51.37,-3.96l135.76 116.36c15.25,13.07 17.01,36.13 3.94,51.37l-506.86 591.35c-6.72,7.84 -224.02,94.15 -229.26,94.15zm71.72 -235.59l-43.29 182.41 173.63 -70.69 501.4 -584.96 -130.35 -111.7 -501.39 584.94z" id="id_124" style="fill: rgb(157, 73, 209);"></path>
  <path class="fil0" d="M1179.61 1148.87c-4.6,0 -9.23,-1.58 -13.01,-4.82l-160.71 -137.75c-20,-17.15 6.06,-47.5 26.04,-30.38l160.71 137.75c14.11,12.11 5.39,35.2 -13.03,35.2z" id="id_125" style="fill: rgb(157, 73, 209);"></path>
  <path class="fil0" d="M1001.48 1269.54c-26.76,0 -12.33,-28.64 -38.25,-50.82 -24.79,-21.2 -55.97,-4.06 -56.29,-32.87 -0.47,-42.16 103.06,-18.41 114.38,60.86 1.72,12.01 -7.74,22.83 -19.84,22.83z" id="id_126" style="fill: rgb(157, 73, 209);"></path>
  <path class="fil0" d="M1603.37 592.92c-4.6,0 -9.23,-1.59 -13.01,-4.82l-99.86 -85.6c-8.36,-7.17 -9.33,-19.84 -2.17,-28.19l73.43 -85.65c21.92,-25.56 60.64,-28.5 86.15,-6.63l37.44 32.1c25.57,21.91 28.56,60.56 6.64,86.15l-73.42 85.65c-3.97,4.62 -9.57,6.98 -15.21,6.98zm-71.65 -107.76l69.5 59.57c83.2,-97.07 84.24,-77.73 20.67,-132.33 -8.46,-7.28 -22.54,-6.13 -29.74,2.3l-60.43 70.46z" id="id_127" style="fill: rgb(178, 80, 230);"></path>
  <path class="fil0" d="M1505.25 768.94c-4.6,0 -9.23,-1.59 -13.01,-4.82l-160.71 -137.74c-8.37,-7.18 -9.34,-19.84 -2.15,-28.19l66.88 -78.02c7.17,-8.39 19.81,-9.38 28.19,-2.17l160.69 137.75c8.39,7.2 9.36,19.82 2.17,28.19l-66.86 78.02c-3.94,4.6 -9.54,6.98 -15.2,6.98zm-132.5 -159.91l130.35 111.7 40.83 -47.64 -130.34 -111.72 -40.84 47.65z" id="id_128" style="fill: rgb(162, 70, 212);"></path>
  <path class="fil0" d="M1116.23 1222.83c-4.6,0 -9.23,-1.58 -13.01,-4.82l-160.69 -137.74c-20,-17.16 6.06,-47.51 26.04,-30.38l160.69 137.74c14.13,12.11 5.38,35.2 -13.03,35.2z" id="id_129" style="fill: rgb(157, 73, 209);"></path>
  <path class="fil0" d="M1433.27 968.4c-16.9,0 -26.35,-19.99 -15.18,-33.03l182.9 -213.37c-27.07,-23.2 -61.98,-43.18 -44.04,-64.07 7.19,-8.37 19.82,-9.38 28.21,-2.17 19.84,17.02 62.82,47.7 63.96,62.56 0.41,5.29 -1.31,10.52 -4.75,14.54l-195.9 228.58c-3.96,4.58 -9.56,6.96 -15.2,6.96z" id="id_130" style="fill: rgb(157, 73, 209);"></path>
 </g>
</svg>